PathFileType	4	(X/Y/Z)	Patient4_TMGait_0pt4_03_right_28.trc.trc
DataRate	CameraRate	NumFrames	NumMarkers	Units	OrigDataRate	OrigDataStartFrame	OrigNumFrames
76.923076923077	76.923076923077	5	33	mm	76.923076923077	18	       141
Frame#	Time	Sacral			L.Shoulder			Chest			R.Shoulder			Neck			R.ASIS			L.ASIS			R.Thigh.Superior			R.Thigh.Lateral			R.Thigh.Inferior			R.Patella			L.Thigh.Superior			L.Thigh.Lateral			L.Thigh.Inferior			L.Patella			L.Shank.Superior			L.Shank.Lateral			L.Shank.Inferior			R.Shank.Superior			R.Shank.Lateral			R.Shank.Inferior			R.Heel			R.Midfoot.Superior			R.Midfoot.Lateral			R.Toe			L.Heel			L.Midfoot.Lateral			L.Midfoot.Superior			L.Toe			L.Elbow			L.Wrist			R.Elbow			R.Wrist			
		X1	Y1	Z1	X2	Y2	Z2	X3	Y3	Z3	X4	Y4	Z4	X5	Y5	Z5	X6	Y6	Z6	X7	Y7	Z7	X8	Y8	Z8	X9	Y9	Z9	X10	Y10	Z10	X11	Y11	Z11	X12	Y12	Z12	X13	Y13	Z13	X14	Y14	Z14	X15	Y15	Z15	X16	Y16	Z16	X17	Y17	Z17	X18	Y18	Z18	X19	Y19	Z19	X20	Y20	Z20	X21	Y21	Z21	X22	Y22	Z22	X23	Y23	Z23	X24	Y24	Z24	X25	Y25	Z25	X26	Y26	Z26	X27	Y27	Z27	X28	Y28	Z28	X29	Y29	Z29	X30	Y30	Z30	X31	Y31	Z31	X32	Y32	Z32	X33	Y33	Z33	

18	36.461000000000	834.257976761001	1010.849207106609	401.110772802577	1038.026094208709	1429.467042377561	217.263339559418	1125.426910293762	1363.496319550650	387.951826042790	1031.383417303979	1443.840677535972	553.416112819860	1010.811880033639	1497.425891290437	371.789289576697	1055.109787433825	948.639704132330	536.370679364666	1057.599096834931	960.562034039276	260.530946783406	1122.082696971662	766.598451002349	513.690996083976	1072.067030479607	650.752498439785	591.354529245437	1157.065801096156	606.217156318732	510.666360075882	1186.311138030037	523.236818687048	530.119143705152	1078.705458142657	739.672677897590	291.238640746959	976.710660899716	636.112909805026	222.084280509930	1045.546760956272	548.830690660554	287.633266543863	1035.692765823751	481.675198512638	295.589025187828	1006.043131809473	412.071117050914	285.349909354869	908.854934877256	303.897115129144	234.673027139785	952.842541456108	189.084343405906	303.872723818459	1165.109968267523	435.775154737579	543.665587867881	1107.034499632985	328.542157629798	614.174464594097	1168.319713191529	235.754614760374	562.877848388749	1064.902756543170	52.050687331032	545.266654678871	1231.945579726214	120.906995802368	577.472529866304	1152.702356226829	48.207469659392	615.669206991993	1356.078355868520	80.375404270201	598.314859383760	820.346345181113	38.304675200330	351.828619057035	887.740269153822	34.917283768425	265.599536244557	973.090063926388	95.606344048077	288.409144288435	1099.234427851382	43.386369126309	248.589058140955	1031.557915367184	1098.526350538589	57.870407955750	1247.738564010698	951.141796660581	64.798277966240	933.808050541504	1113.436675820111	678.588589614271	958.002821670580	856.748171610727	717.727212790311	
19	36.474000000000	835.989147094458	1009.759007931388	402.998825848088	1037.816124571511	1428.946757353296	219.409473836993	1125.634809565011	1363.244343250075	389.993226703679	1031.471083216093	1443.288058823014	555.531543774591	1010.599436784713	1496.786024984683	373.912942127034	1057.113898614425	947.578395114981	538.023496312120	1059.658662231466	960.461604763979	261.957152881180	1122.648081572677	764.084517341140	515.433967038647	1070.247795416828	648.152488254193	591.826279764987	1155.425696667533	603.580902508313	511.545613922753	1183.106710104118	521.159262025371	530.018739646271	1078.966347238870	738.566770016943	292.802821294398	976.201007897367	635.649381085824	223.287692387961	1044.191092412549	547.802949603557	288.913714842265	1033.858935708719	480.559282768197	296.604466231418	1003.615883483376	411.239326273206	286.278841682247	905.503082643565	303.957631088496	235.212583831408	948.382795797356	188.570395124071	304.184387792974	1162.970605292786	433.308868523053	543.458685221609	1105.318906421557	325.185297788269	612.859768706089	1167.874469244741	233.253187352853	561.372427364139	1066.313579521742	49.040399768500	542.036210748311	1232.571810284036	118.662600595627	575.438889595481	1153.474782007392	45.894473536664	613.183652953213	1356.761684342185	78.981039280769	597.359772179370	815.122318932399	38.251322731628	351.816603976859	882.506087231530	34.876491701628	265.618669082602	967.916766994428	95.545028585884	288.460301165741	1094.010984274152	43.187093580444	248.606318462714	1035.458847327038	1097.723805622206	60.557046598033	1254.031660619909	953.989117954856	66.972247372256	930.848304952038	1114.278655254256	680.813939592388	952.936174129675	857.376213649847	719.976613799619	
20	36.487000000000	837.899813847605	1008.493938132799	405.242140400461	1037.394942033305	1428.369575052925	221.706007417275	1125.781636508860	1363.021041799542	392.139861226581	1031.512599582086	1442.666957947575	557.811523639520	1010.237456699986	1496.066244798752	376.201142939238	1059.427556890343	946.486833410019	539.843378053123	1061.995906885848	960.342902745161	263.520267237310	1123.900854404886	761.728491058960	517.268673378846	1069.054351350714	645.538255938516	592.019414100416	1154.622278840650	601.123157977654	512.341231460844	1180.438086919728	518.855633068376	529.770158456682	1079.570465475731	737.423110169559	294.495107810107	976.029622401198	635.066008226078	224.710690242241	1043.341032303522	546.686378932394	290.295188552969	1032.601988750741	479.253166541378	297.699598936447	1001.588222327770	410.258621453066	287.324426928589	902.374928384291	304.027889177299	235.890032225526	944.023739761335	187.977244782683	304.548291521542	1160.807335035084	430.525346768511	542.963750607850	1102.700378489375	321.942799091500	611.050142740900	1165.795490293223	230.477125700757	559.404669024164	1064.612696834584	46.907954400088	538.242185700729	1230.538144243829	115.855910364011	572.928632689750	1150.953617071313	43.857508983203	610.219944889506	1354.384580815144	75.995173586806	596.084499776112	809.887455009559	38.161503170102	351.814707436181	877.274863033909	34.818152935526	265.654892859482	962.747363787099	95.473558493010	288.534082023699	1088.799689928906	42.948480988090	248.614001420939	1039.146000701064	1096.810190455904	63.565874937643	1259.988936622909	956.632317485748	69.359488260850	928.501848936006	1114.801069034827	683.065773597063	948.978290946372	857.667266198168	721.940393585240	
21	36.500000000000	839.959291179554	1007.084367184396	407.806211552031	1036.801793050313	1427.737040445329	224.150354446861	1125.885595308474	1362.826909679346	394.398993756759	1031.517375900497	1441.989897872011	560.253118264391	1009.753605952491	1495.279545918533	378.651148631095	1062.014173437680	945.389893702543	541.832013443184	1064.574833655004	960.186809250870	265.230478951908	1125.756709083207	759.499441391203	519.187590928861	1068.416457438822	642.954031434855	591.990067373066	1154.531024595989	598.818512759007	513.054742846498	1178.262715826109	516.354616692853	529.353571199150	1080.529016432520	736.251917680968	296.283480735459	976.209227119556	634.363189920438	226.352110209795	1043.037073233207	545.483475497931	291.748658163927	1031.976418933538	477.749050582099	298.844102194745	999.993521666019	409.128594617358	288.466735923276	899.490318774598	304.124394144156	236.710476947896	939.783824779185	187.321915676536	304.958790219155	1158.678204498105	427.506097049984	542.209630752046	1099.489921793859	318.816501680183	608.941385021141	1162.447910671534	227.466772467839	557.108379802299	1060.375031287850	45.433711049553	534.247464245651	1226.376767769162	112.648359497011	570.098323134210	1145.833081270809	42.077791975009	607.056309536332	1349.629979381949	71.822358923004	594.547600265948	804.641078357509	38.062859746444	351.819436097252	872.050289383132	34.751772883548	265.709150074429	957.591390292040	95.396223493508	288.626398254178	1083.608416509501	42.667620406096	248.607017800158	1042.560335943475	1095.791066050720	66.870891412806	1265.539683056267	959.050385203100	71.934147038050	926.805247930020	1114.982427291580	685.344513566645	946.145279746714	857.602748872886	723.651034495265	
22	36.513000000000	842.128808239810	1005.575373950762	410.646317291529	1036.082319017852	1427.062139909456	226.736597225485	1125.967786458594	1362.669021310627	396.774932133196	1031.501315492435	1441.280682013747	562.849952129439	1009.185856651236	1494.452662262707	381.256711114721	1064.822998927796	944.324404186972	543.985804926853	1067.330170012947	959.977030154950	267.099975599170	1128.084588934397	757.371600183910	521.176416651731	1068.250482024644	640.469179337653	591.839012792695	1154.975252197408	596.653271436661	513.697231083275	1176.520418065350	513.722724888421	528.785352576165	1081.843135443455	735.077301189276	298.132901947485	976.748592235109	633.554790292948	228.203775352738	1043.314837065723	544.210571326047	293.241055568112	1032.030161628259	476.056755070668	300.000037864740	998.864631526453	407.865996023087	289.676656875991	896.873184971552	304.279764004831	237.671974099284	935.688242548702	186.639928585410	305.401820830993	1156.642765609973	424.372407119036	541.269885991066	1096.028031618429	315.842945414728	606.766485807396	1158.254549246413	224.323966201694	554.657178043149	1054.306120970239	44.426581664930	530.413388688206	1220.703794740838	109.276345026361	567.145893826663	1138.924306034603	40.564979916668	603.979899699052	1343.259336783701	66.979966777363	592.850832567354	799.386816466244	38.012212711844	351.823228555398	866.839094162903	34.699771017407	265.778979244398	952.468131598867	95.321657628813	288.724505386337	1078.446327776006	42.342543730443	248.579205628553	1045.648007086145	1094.677400455399	70.446181259863	1270.613477919973	961.215972395069	74.670679120946	925.791142008490	1114.821318676613	687.653958071704	944.448369005083	857.185368148332	725.145863464475	
